<svg xmlns="http://www.w3.org/2000/svg" viewBox="0 0 512 512" width="512" height="512" preserveAspectRatio="xMidYMid meet" style="width: 100%; height: 100%; transform: translate3d(0px, 0px, 0px); content-visibility: visible;"><defs><clipPath id="__lottie_element_2"><rect width="512" height="512" x="0" y="0"/></clipPath></defs><g clip-path="url(#__lottie_element_2)"><g transform="matrix(0.8849343061447144,0,0,0.9420655965805054,291.5216369628906,247.62893676757812)" opacity="1" style="display: block;"><g opacity="1" transform="matrix(1,0,0,1,0,0)"><path fill="rgb(194,28,80)" fill-opacity="1" d=" M46.882999420166016,153.72799682617188 C46.882999420166016,153.72799682617188 61.32699966430664,189.07000732421875 74.697998046875,192.156005859375 C88.06900024414062,195.24200439453125 85.73500061035156,174.33299255371094 85.73500061035156,174.33299255371094"/></g><g opacity="1" transform="matrix(1,0,0,1,0,0)"><path stroke-linecap="round" stroke-linejoin="round" fill-opacity="0" stroke="rgb(77,15,10)" stroke-opacity="1" stroke-width="6" d=" M46.882999420166016,153.72799682617188 C46.882999420166016,153.72799682617188 61.32699966430664,189.07000732421875 74.697998046875,192.156005859375 C88.06900024414062,195.24200439453125 85.73500061035156,174.33299255371094 85.73500061035156,174.33299255371094"/></g></g><g transform="matrix(0.8848989009857178,0.008423572406172752,-0.007912728004157543,0.9420279264450073,292.8941345214844,246.77626037597656)" opacity="1" style="display: block;"><g opacity="1" transform="matrix(1,0,0,1,0,0)"><path fill="rgb(244,34,110)" fill-opacity="1" d=" M163.56300354003906,170.45899963378906 C173.88099670410156,165.8040008544922 183.0449981689453,160.1959991455078 190.04100036621094,153.4409942626953 C219.8699951171875,124.64099884033203 238.91000366210938,65.98400115966797 201.8979949951172,21.7549991607666 C164.88600158691406,-22.474000930786133 96.47000122070312,-22.472999572753906 60.98400115966797,-7.9070000648498535 C25.49799919128418,6.658999919891357 20.868999481201172,43.35499954223633 20.868999481201172,43.35499954223633 C20.868999481201172,43.35499954223633 28.462268829345703,22.763731002807617 21.948266983032227,21.681730270385742 C15.4342679977417,20.5997314453125 7.825844764709473,27.481523513793945 8.777844429016113,65.88152313232422 C9.72984504699707,104.28152465820312 22.878999710083008,133.85299682617188 45.016998291015625,152.20399475097656 C67.15499877929688,170.55499267578125 116.65699768066406,191.6199951171875 163.56300354003906,170.45899963378906z"/></g></g><g transform="matrix(0.8849343061447144,0,0,0.9420655965805054,291.5216064453125,247.62893676757812)" opacity="1" style="display: block;"><g opacity="1" transform="matrix(1,0,0,1,0,0)"><path fill="rgb(194,28,80)" fill-opacity="1" d=" M121.66899871826172,179.29200744628906 C121.66899871826172,179.29200744628906 121.72200012207031,188.1529998779297 125.83599853515625,195.3820037841797 C131.38099670410156,205.12399291992188 149.75799560546875,194.3800048828125 165.88499450683594,169.43899536132812"/></g><g opacity="1" transform="matrix(1,0,0,1,0,0)"><path stroke-linecap="round" stroke-linejoin="round" fill-opacity="0" stroke="rgb(77,15,10)" stroke-opacity="1" stroke-width="6" d=" M121.66899871826172,179.29200744628906 C121.66899871826172,179.29200744628906 121.72200012207031,188.1529998779297 125.83599853515625,195.3820037841797 C131.38099670410156,205.12399291992188 149.75799560546875,194.3800048828125 165.88499450683594,169.43899536132812"/></g></g><g transform="matrix(0.8848989009857178,0.008423572406172752,-0.007912728004157543,0.9420279264450073,292.8941345214844,246.77626037597656)" opacity="1" style="display: block;"><g opacity="0.3" transform="matrix(1,0,0,1,0,0)"><path fill="rgb(255,87,148)" fill-opacity="1" d=" M175.56500244140625,6.380000114440918 C205.08099365234375,22.4060001373291 220.072998046875,51.85599899291992 209.0500030517578,72.15799713134766 C198.02699279785156,92.45999908447266 165.16400146484375,95.9260025024414 135.6479949951172,79.9000015258789 C106.13200378417969,63.874000549316406 91.13999938964844,34.42499923706055 102.16300201416016,14.123000144958496 C113.18599700927734,-6.178999900817871 146.0489959716797,-9.645999908447266 175.56500244140625,6.380000114440918z"/></g><g opacity="1" transform="matrix(1,0,0,1,0,0)"><path fill="rgb(255,87,148)" fill-opacity="1" d=" M190.0449981689453,153.43699645996094 C229.26499938964844,89.35700225830078 215.88499450683594,49.38199996948242 187.81500244140625,20.506999969482422 C158.697998046875,-9.444000244140625 104.5250015258789,-14.532999992370605 69.21499633789062,-3.562999963760376 C43.60499954223633,4.396999835968018 31.035999298095703,19.01300048828125 23.61199951171875,40.27000045776367 C22.302000045776367,44.02199935913086 21.485000610351562,40.30699920654297 21.385000228881836,40.55699920654297 C21.385000228881836,40.55699920654297 25.295000076293945,28.226999282836914 25.295000076293945,28.226999282836914 C25.295000076293945,28.226999282836914 25.295000076293945,28.207000732421875 25.295000076293945,28.207000732421875 C25.295000076293945,28.207000732421875 25.325000762939453,28.12700080871582 25.325000762939453,28.12700080871582 C30.295000076293945,16.28700065612793 40.494998931884766,0.5070000290870667 60.98500061035156,-7.9029998779296875 C96.46499633789062,-22.472999572753906 164.88499450683594,-22.472999572753906 201.89500427246094,21.756999969482422 C238.9149932861328,65.98699951171875 219.86500549316406,124.63700103759766 190.0449981689453,153.43699645996094z"/></g><g opacity="1" transform="matrix(1,0,0,1,0,0)"><path fill="rgb(194,28,80)" fill-opacity="1" d=" M218.19500732421875,105.927001953125 C213.35400390625,124.9209976196289 202.28500366210938,141.61700439453125 190.0449981689453,153.43699645996094 C183.0449981689453,160.19700622558594 173.88499450683594,165.8070068359375 163.56500244140625,170.45700073242188 C116.65499877929688,191.61700439453125 67.15499877929688,170.5570068359375 45.01499938964844,152.20700073242188 C24.885000228881836,135.52699279785156 2.3922715187072754,92.58966064453125 9.215733528137207,56.049007415771484 C9.555733680725098,57.32900619506836 2.9200000762939453,134.45700073242188 92.5260009765625,158.04100036621094 C149.7310028076172,173.0970001220703 206.01199340820312,153.72799682617188 218.19500732421875,105.927001953125z"/></g><g opacity="0.3" transform="matrix(1,0,0,1,0,0)"><path fill="rgb(77,15,10)" fill-opacity="1" d=" M210.21656799316406,73.47467803955078 C211.89956665039062,80.80368041992188 206.95457458496094,88.19329071044922 199.17257690429688,89.98029327392578 C191.3905792236328,91.76728820800781 183.7175750732422,87.2752914428711 182.03457641601562,79.9462890625 C180.35157775878906,72.61729431152344 185.29656982421875,65.22767639160156 193.0785675048828,63.440677642822266 C200.86056518554688,61.65367889404297 208.5335693359375,66.14567565917969 210.21656799316406,73.47467803955078z"/></g><g opacity="0.3" transform="matrix(1,0,0,1,0,0)"><path fill="rgb(77,15,10)" fill-opacity="1" d=" M29.68628692626953,50.01548385620117 C27.41028594970703,56.667484283447266 21.389286041259766,60.63048553466797 16.237285614013672,58.86848449707031 C11.085286140441895,57.106483459472656 10.414377212524414,50.91669845581055 12.690377235412598,44.26469802856445 C14.966377258300781,37.61269760131836 19.327285766601562,33.017486572265625 24.479286193847656,34.779483795166016 C29.63128662109375,36.54148483276367 31.9622859954834,43.36348342895508 29.68628692626953,50.01548385620117z"/></g><g opacity="1" transform="matrix(1,0,0,1,0,0)"><path stroke-linecap="round" stroke-linejoin="round" fill-opacity="0" stroke="rgb(77,15,10)" stroke-opacity="1" stroke-width="6" d=" M128.9040069580078,178.89199829101562 C100.7229995727539,181.22799682617188 69.685302734375,172.91561889648438 42.24399948120117,149.8300018310547 C-6.425939559936523,108.8948974609375 5.4811553955078125,-0.5199062824249268 26.275999069213867,25.98900032043457"/></g><g opacity="1" transform="matrix(1,0,0,1,0,0)"><path stroke-linecap="round" stroke-linejoin="round" fill-opacity="0" stroke="rgb(77,15,10)" stroke-opacity="1" stroke-width="6" d=" M20.868999481201172,43.35499954223633 C20.868999481201172,43.35499954223633 25.49799919128418,6.658999919891357 60.98400115966797,-7.9070000648498535 C96.47000122070312,-22.472999572753906 164.88600158691406,-22.474000930786133 201.8979949951172,21.7549991607666 C238.91000366210938,65.98400115966797 219.8699951171875,124.64099884033203 190.04100036621094,153.4409942626953 C183.0449981689453,160.1959991455078 173.98500061035156,166.04299926757812 163.56300354003906,170.45899963378906"/></g><g opacity="1" transform="matrix(1,0,0,1,0,0)"><g opacity="1" transform="matrix(1,0,0,1,0,0)"><path stroke-linecap="round" stroke-linejoin="round" fill-opacity="0" stroke="rgb(255,255,255)" stroke-opacity="1" stroke-width="6" d=" M207.37100219726562,49.49100112915039 C209.0229949951172,53.731998443603516 210.42100524902344,58.505001068115234 210.95599365234375,61.42599868774414"/></g><g opacity="1" transform="matrix(1,0,0,1,0,0)"><path stroke-linecap="round" stroke-linejoin="round" fill-opacity="0" stroke="rgb(255,255,255)" stroke-opacity="1" stroke-width="6" d=" M201.18499755859375,37.81100082397461 C201.18499755859375,37.81100082397461 202.0850067138672,39.3120002746582 203.33799743652344,41.86800003051758"/></g></g></g><g transform="matrix(0.8848989009857178,0.008423572406172752,-0.007912728004157543,0.9420279264450073,293.846923828125,244.18954467773438)" opacity="1" style="display: block;"><g opacity="1" transform="matrix(1,0,0,1,0,0)"><path stroke-linecap="round" stroke-linejoin="round" fill-opacity="0" stroke="rgb(77,15,10)" stroke-opacity="1" stroke-width="6" d=" M100.06900024414062,117.44100189208984 C100.06900024414062,117.44100189208984 85.30142211914062,101.06831359863281 95.34561157226562,89.40013122558594 C105.46546173095703,77.61644744873047 116.60408782958984,89.55763244628906 119.84100341796875,102.43599700927734"/></g></g><g transform="matrix(0.8848989009857178,0.008423572406172752,-0.007912728004157543,0.9420279264450073,293.8468017578125,244.1898956298828)" opacity="1" style="display: block;"><g opacity="1" transform="matrix(1,0,0,1,0,0)"><path stroke-linecap="round" stroke-linejoin="round" fill-opacity="0" stroke="rgb(77,15,10)" stroke-opacity="1" stroke-width="6" d=" M59.097999572753906,96.55500030517578 C59.097999572753906,96.55500030517578 61.01687240600586,81.57052612304688 76.10287475585938,81.57052612304688 C91.18887329101562,81.57052612304688 90.82801055908203,100.02781677246094 75.66899871826172,111.18399810791016"/></g></g><g transform="matrix(0.8848989009857178,0.008423572406172752,-0.007912728004157543,0.9420279264450073,293.8470153808594,244.18907165527344)" opacity="1" style="display: block;"><g opacity="1" transform="matrix(1,0,0,1,0,0)"><path stroke-linecap="round" stroke-linejoin="round" fill-opacity="0" stroke="rgb(77,15,10)" stroke-opacity="1" stroke-width="6" d=" M82.32599639892578,71.64099884033203 C82.32599639892578,71.64099884033203 77.27300262451172,81.25700378417969 83.91400146484375,83.77799987792969 C90.55500030517578,86.29900360107422 91.39099884033203,80.12699890136719 91.39099884033203,80.12699890136719 C91.39099884033203,80.12699890136719 93.125,86.22599792480469 99.9010009765625,85.73899841308594 C106.677001953125,85.25199890136719 103.41200256347656,72.927001953125 103.41200256347656,72.927001953125"/></g></g><g transform="matrix(0.8848989009857178,0.008423572406172752,-0.007912728004157543,0.9420279264450073,289.4219665527344,244.1481475830078)" opacity="1" style="display: block;"><g opacity="1" transform="matrix(1,0,0,1,0,0)"><path fill="rgb(245,245,245)" fill-opacity="1" d=" M56.81399917602539,44.77799987792969 C49.2140007019043,36.86199951171875 40.79499816894531,37.69900131225586 40.79499816894531,37.69900131225586 C40.79499816894531,37.69900131225586 47.90299987792969,37.33300018310547 55.8380012512207,45.47800064086914 C64.46499633789062,54.33399963378906 66.58599853515625,61.3380012512207 66.58599853515625,61.3380012512207 C66.58599853515625,61.3380012512207 63.435001373291016,51.67499923706055 56.81399917602539,44.77799987792969z"/></g><g opacity="1" transform="matrix(1,0,0,1,0,0)"><g opacity="1" transform="matrix(1,0,0,1,0,0)"><path fill="rgb(77,15,10)" fill-opacity="1" d=" M55.75600051879883,45.369998931884766 C51.36399841308594,40.02199935913086 41.32899856567383,37.4370002746582 41.32899856567383,37.4370002746582 C41.32899856567383,37.4370002746582 48.768001556396484,39.74399948120117 55.393001556396484,45.19300079345703 C65.1259994506836,53.198001861572266 66.84400177001953,61.24700164794922 66.84400177001953,61.24700164794922 C66.84400177001953,61.24700164794922 60.415000915527344,51.042999267578125 55.75600051879883,45.369998931884766z"/></g><g opacity="1" transform="matrix(1,0,0,1,0,0)"><path stroke-linecap="round" stroke-linejoin="round" fill-opacity="0" stroke="rgb(255,255,255)" stroke-opacity="1" stroke-width="0" d=" M57.22800064086914,47.00400161743164 C57.22800064086914,47.00400161743164 60.11000061035156,46.19200134277344 60.11000061035156,46.19200134277344"/></g><g opacity="0.2" transform="matrix(1,0,0,1,0,0)"><path stroke-linecap="round" stroke-linejoin="round" fill-opacity="0" stroke="rgb(244,34,110)" stroke-opacity="1" stroke-width="0" d=" M57.584999084472656,47.33000183105469 C56.972999572753906,47.65299987792969 57.0260009765625,49.1609992980957 59.612998962402344,49.270999908447266"/></g></g><g opacity="1" transform="matrix(1,0,0,1,0,0)"><path stroke-linecap="round" stroke-linejoin="round" fill-opacity="0" stroke="rgb(77,15,10)" stroke-opacity="1" stroke-width="7" d=" M56.81399917602539,44.77799987792969 C49.2140007019043,36.86199951171875 40.79499816894531,37.69900131225586 40.79499816894531,37.69900131225586 C40.79499816894531,37.69900131225586 47.90299987792969,37.33300018310547 55.8380012512207,45.47800064086914 C64.46499633789062,54.33399963378906 66.58599853515625,61.3380012512207 66.58599853515625,61.3380012512207 C66.58599853515625,61.3380012512207 63.435001373291016,51.67499923706055 56.81399917602539,44.77799987792969z"/></g></g><g transform="matrix(0.8848989009857178,0.008423572406172752,-0.007912728004157543,0.9420279264450073,293.8470764160156,244.1893768310547)" opacity="1" style="display: block;"><g opacity="1" transform="matrix(1,0,0,1,0,0)"><path fill="rgb(245,245,245)" fill-opacity="1" d=" M154.4239959716797,55.84400177001953 C143.40499877929688,55.04199981689453 130.08099365234375,68.5270004272461 129.90699768066406,68.41400146484375 C129.9669952392578,68.39199829101562 139.84100341796875,57.797000885009766 153.50399780273438,55.6870002746582 C170.18699645996094,53.111000061035156 174.45799255371094,57.792999267578125 174.29100036621094,57.689998626708984 C174.39500427246094,57.78799819946289 165.4429931640625,56.645999908447266 154.4239959716797,55.84400177001953z"/></g><g opacity="1" transform="matrix(1,0,0,1,0,0)"><g opacity="1" transform="matrix(1,0,0,1,0,0)"><path fill="rgb(77,15,10)" fill-opacity="1" d=" M153.58799743652344,55.77299880981445 C144.68299865722656,56.0890007019043 130.10299682617188,68.27799987792969 129.96200561523438,68.53399658203125 C130.0919952392578,68.4020004272461 142.98699951171875,57.29199981689453 153.29299926757812,55.70100021362305 C165.8780059814453,53.757999420166016 174.46299743652344,57.73099899291992 174.4290008544922,57.992000579833984 C174.45199584960938,57.85499954223633 161.91700744628906,55.47800064086914 153.58799743652344,55.77299880981445z"/></g><g opacity="1" transform="matrix(1,0,0,1,0,0)"><path stroke-linecap="round" stroke-linejoin="round" fill-opacity="0" stroke="rgb(255,255,255)" stroke-opacity="1" stroke-width="0" d=" M159.8699951171875,55.54499816894531 C159.8699951171875,55.54499816894531 161.95700073242188,55.10100173950195 161.95700073242188,55.10100173950195"/></g><g opacity="0.2" transform="matrix(1,0,0,1,0,0)"><path stroke-linecap="round" stroke-linejoin="round" fill-opacity="0" stroke="rgb(244,34,110)" stroke-opacity="1" stroke-width="0" d=" M147.58099365234375,56.45600128173828 C148.781005859375,58.066001892089844 149.81900024414062,57.652000427246094 151.83599853515625,57.98500061035156"/></g></g><g opacity="1" transform="matrix(1,0,0,1,0,0)"><path stroke-linecap="round" stroke-linejoin="round" fill-opacity="0" stroke="rgb(77,15,10)" stroke-opacity="1" stroke-width="7" d=" M151.3730010986328,54.83300018310547 C140.6820068359375,57.61899948120117 130.0919952392578,68.4020004272461 129.90699768066406,68.41400146484375 C129.9669952392578,68.39199829101562 138.28199768066406,59.04899978637695 151.9669952392578,56.058998107910156 C163.0800018310547,53.63100051879883 174.29100036621094,57.689998626708984 174.29100036621094,57.689998626708984 C174.29100036621094,57.689998626708984 163.17599487304688,51.757999420166016 151.3730010986328,54.83300018310547z"/></g></g><g transform="matrix(0.8848989009857178,0.008423572406172752,-0.007912728004157543,0.9420279264450073,293.84619140625,244.18978881835938)" opacity="1" style="display: block;"><g opacity="1" transform="matrix(1,0,0,1,0,0)"><path fill="rgb(77,15,10)" fill-opacity="1" d=" M48.481998443603516,11.538000106811523 C55.28300094604492,9.446000099182129 61.619998931884766,10.42199993133545 62.63399887084961,13.718999862670898 C63.64799880981445,17.016000747680664 58.957000732421875,21.38599967956543 52.15599822998047,23.47800064086914 C45.35499954223633,25.56999969482422 39.018001556396484,24.5939998626709 38.00400161743164,21.297000885009766 C36.9900016784668,18 41.680999755859375,13.630000114440918 48.481998443603516,11.538000106811523z"/></g></g><g transform="matrix(0.8848989009857178,0.008423572406172752,-0.007912728004157543,0.9420279264450073,293.8468017578125,244.1895751953125)" opacity="1" style="display: block;"><g opacity="1" transform="matrix(1,0,0,1,0,0)"><path fill="rgb(77,15,10)" fill-opacity="1" d=" M170.8280029296875,22.408000946044922 C176.93899536132812,26.895000457763672 180.0399932861328,33.05799865722656 177.7530059814453,36.17300033569336 C175.46600341796875,39.28799819946289 168.65699768066406,38.17499923706055 162.54600524902344,33.6879997253418 C156.43499755859375,29.201000213623047 153.33399963378906,23.038999557495117 155.62100219726562,19.923999786376953 C157.9080047607422,16.80900001525879 164.7169952392578,17.92099952697754 170.8280029296875,22.408000946044922z"/></g></g><g transform="matrix(0.8848989009857178,0.008423572406172752,-0.007912728004157543,0.9420279264450073,292.8941345214844,246.77626037597656)" opacity="1" style="display: block;"><g opacity="1" transform="matrix(1,0,0,1,0,0)"><path fill="rgb(29,214,214)" fill-opacity="1" d=" M99.9010009765625,-0.17100000381469727 C99.9010009765625,-0.17100000381469727 157.10206604003906,-20.93134117126465 160.3152313232422,-106.7127914428711 C163.59400939941406,-183.0058135986328 115.3062744140625,-170.305908203125 117.50807189941406,-187.5796356201172 C119.70986938476562,-204.85336303710938 153.03921508789062,-193.7321319580078 164.6340789794922,-157.7684783935547 C176.22894287109375,-121.8048324584961 181.4709930419922,-54.948001861572266 128.58900451660156,4.5960001945495605 C128.58900451660156,4.5960001945495605 109.85800170898438,5.465000152587891 99.9010009765625,-0.17100000381469727z"/></g><g opacity="1" transform="matrix(1,0,0,1,0,0)"><path fill="rgb(67,255,250)" fill-opacity="1" d=" M164.6340789794922,-157.76637268066406 C176.23104858398438,-121.8036117553711 181.4720001220703,-54.948001861572266 128.5919952392578,4.599999904632568 C128.5919952392578,4.599999904632568 119.28199768066406,5.0289998054504395 110.3010025024414,3.302999973297119 C116.94000244140625,3.924999952316284 116.94000244140625,3.9240000247955322 116.94000244140625,3.9240000247955322 C176.69200134277344,-54.14799880981445 170.9793701171875,-119.69178771972656 159.74388122558594,-154.84266662597656 C150.96133422851562,-182.31809997558594 123.11227416992188,-197.02784729003906 118.95736694335938,-186.24337768554688 C120.38587188720703,-206.91851806640625 153.8647918701172,-191.16249084472656 164.6340789794922,-157.76637268066406z"/></g><g opacity="1" transform="matrix(1,0,0,1,0,0)"><path stroke-linecap="round" stroke-linejoin="round" fill-opacity="0" stroke="rgb(0,114,111)" stroke-opacity="1" stroke-width="6" d=" M99.9010009765625,-0.17100000381469727 C99.9010009765625,-0.17100000381469727 156.86911010742188,-20.951791763305664 160.3152313232422,-106.7127914428711 C163.7958526611328,-183.0022430419922 115.3062744140625,-170.305908203125 117.50807189941406,-187.5796356201172 C119.70986938476562,-204.85336303710938 153.03921508789062,-193.7321319580078 164.6340789794922,-157.7684783935547 C176.22894287109375,-121.8048324584961 181.4709930419922,-54.948001861572266 128.58900451660156,4.5960001945495605 C128.58900451660156,4.5960001945495605 109.85800170898438,5.465000152587891 99.9010009765625,-0.17100000381469727z"/></g><g opacity="1" transform="matrix(1,0,0,1,0,0)"><path stroke-linecap="round" stroke-linejoin="round" fill-opacity="0" stroke="rgb(77,15,10)" stroke-opacity="1" stroke-width="6" d=" M92.5260009765625,-1.559000015258789 C92.5260009765625,-1.559000015258789 113.82499694824219,9.017000198364258 141.21200561523438,2.555000066757202"/></g></g><g transform="matrix(0.8999999761581421,0,0,0.8999999761581421,290,256)" opacity="1" style="display: block;"><g opacity="1" transform="matrix(1,0,0,1,0,0)"><path fill="rgb(194,28,80)" fill-opacity="1" d=" M-151.69900512695312,170.88299560546875 C-151.69900512695312,170.88299560546875 -145.26499938964844,179.31700134277344 -145.07400512695312,195.927001953125 C-144.9709930419922,204.84100341796875 -127.56800079345703,208.08200073242188 -122.09200286865234,184.17599487304688 C-116.61599731445312,160.27000427246094 -153.86700439453125,144.54600524902344 -151.69900512695312,170.88299560546875z"/><path stroke-linecap="round" stroke-linejoin="round" fill-opacity="0" stroke="rgb(77,15,10)" stroke-opacity="1" stroke-width="6" d=" M-151.69900512695312,170.88299560546875 C-151.69900512695312,170.88299560546875 -145.26499938964844,179.31700134277344 -145.07400512695312,195.927001953125 C-144.9709930419922,204.84100341796875 -127.56800079345703,208.08200073242188 -122.09200286865234,184.17599487304688 C-116.61599731445312,160.27000427246094 -153.86700439453125,144.54600524902344 -151.69900512695312,170.88299560546875z"/></g></g><g transform="matrix(0.9398848414421082,0.06853359192609787,-0.07539481669664383,0.8543515801429749,307.6820373535156,271.7660217285156)" opacity="1" style="display: block;"><g opacity="1" transform="matrix(1,0,0,1,0,0)"><path fill="rgb(244,34,110)" fill-opacity="1" d=" M-8.862000465393066,46.441001892089844 C-8.862000465393066,46.441001892089844 -22.329999923706055,-12.70199966430664 -79.41600036621094,-28.645000457763672 C-136.5019989013672,-44.5880012512207 -199.2449951171875,-16.591999053955078 -218.8159942626953,30.01300048828125 C-241.99200439453125,85.2020034790039 -214.56100463867188,134.4429931640625 -186.302001953125,157.58399963378906 C-152.93099975585938,184.91200256347656 -94.84500122070312,198.156005859375 -48.61600112915039,166.45899963378906 C-10.564000129699707,140.36900329589844 3.5789999961853027,100.44100189208984 -8.862000465393066,46.441001892089844z"/></g></g><g transform="matrix(0.9398848414421082,0.06853359192609787,-0.07539481669664383,0.8543515801429749,307.6820373535156,271.7660217285156)" opacity="1" style="display: block;"><g opacity="0.3" transform="matrix(1,0,0,1,0,0)"><path fill="rgb(255,87,148)" fill-opacity="1" d=" M-127.56700134277344,-32.551998138427734 C-91.28800201416016,-36.58700180053711 -60.332000732421875,-25.95199966430664 -58.42399978637695,-8.798999786376953 C-56.51599884033203,8.354000091552734 -84.37899780273438,25.5310001373291 -120.65799713134766,29.56599998474121 C-156.93699645996094,33.60100173950195 -187.89300537109375,22.96500015258789 -189.80099487304688,5.811999797821045 C-191.70899963378906,-11.340999603271484 -163.8459930419922,-28.517000198364258 -127.56700134277344,-32.551998138427734z"/></g><g opacity="1" transform="matrix(1,0,0,1,0,0)"><path fill="rgb(255,87,148)" fill-opacity="1" d=" M-9.824999809265137,42.946998596191406 C-10.71500015258789,41.37699890136719 -11.625,39.6870002746582 -12.585000038146973,37.87699890136719 C-52.55500030517578,-37.882999420166016 -130.8730010986328,-28.381000518798828 -174.55499267578125,-4.942999839782715 C-223.58799743652344,21.365999221801758 -225.98500061035156,75.87699890136719 -225.98500061035156,75.87699890136719 C-225.98500061035156,75.87699890136719 -227.4250030517578,67.8270034790039 -227.4250030517578,67.8270034790039 C-226.93499755859375,55.72700119018555 -224.28500366210938,43.047000885009766 -218.81500244140625,30.017000198364258 C-199.2449951171875,-16.593000411987305 -136.5050048828125,-44.58300018310547 -79.41500091552734,-28.64299964904785 C-30.69499969482422,-15.032999992370605 -13.744999885559082,30.03700065612793 -9.824999809265137,42.946998596191406z"/></g><g opacity="1" transform="matrix(1,0,0,1,0,0)"><path stroke-linecap="round" stroke-linejoin="round" fill-opacity="0" stroke="rgb(77,15,10)" stroke-opacity="1" stroke-width="6" d=" M-8.862000465393066,46.441001892089844 C-8.862000465393066,46.441001892089844 -22.329999923706055,-12.70199966430664 -79.41600036621094,-28.645000457763672 C-136.5019989013672,-44.5880012512207 -199.2449951171875,-16.591999053955078 -218.8159942626953,30.01300048828125 C-241.99200439453125,85.2020034790039 -214.56100463867188,134.4429931640625 -186.302001953125,157.58399963378906 C-152.93099975585938,184.91200256347656 -94.84500122070312,198.156005859375 -48.61600112915039,166.45899963378906 C-10.564000129699707,140.36900329589844 3.5789999961853027,100.44100189208984 -8.862000465393066,46.441001892089844z"/></g><g opacity="1" transform="matrix(1,0,0,1,0,0)"><path fill="rgb(194,28,80)" fill-opacity="1" d=" M-12.585000038146973,124.13700103759766 C-19.844999313354492,140.91700744628906 -31.924999237060547,155.01699829101562 -48.6150016784668,166.45700073242188 C-94.84500122070312,198.15699768066406 -152.93499755859375,184.90699768066406 -186.30499267578125,157.58700561523438 C-214.56500244140625,134.44700622558594 -241.9949951171875,85.20700073242188 -218.81500244140625,30.017000198364258 C-215.4949951171875,22.117000579833984 -210.94500732421875,14.746999740600586 -205.375,8.04699993133545 C-206.88499450683594,10.737000465393066 -247.27699279785156,83.87100219726562 -175.0749969482422,139.01699829101562 C-106.15899658203125,191.6529998779297 -23.358999252319336,150.84100341796875 -12.585000038146973,124.13700103759766z"/></g><g opacity="1" transform="matrix(1,0,0,1,0,0)"><path stroke-linecap="round" stroke-linejoin="round" fill-opacity="0" stroke="rgb(77,15,10)" stroke-opacity="1" stroke-width="6" d=" M-8.862000465393066,46.441001892089844 C-8.862000465393066,46.441001892089844 -22.329999923706055,-12.70199966430664 -79.41600036621094,-28.645000457763672 C-136.5019989013672,-44.5880012512207 -199.2449951171875,-16.591999053955078 -218.8159942626953,30.01300048828125 C-241.99200439453125,85.2020034790039 -214.56100463867188,134.4429931640625 -186.302001953125,157.58399963378906 C-152.93099975585938,184.91200256347656 -94.84500122070312,198.156005859375 -48.61600112915039,166.45899963378906 C-10.564000129699707,140.36900329589844 3.5789999961853027,100.44100189208984 -8.862000465393066,46.441001892089844z"/></g><g opacity="1" transform="matrix(1,0,0,1,0,0)"><g opacity="1" transform="matrix(1,0,0,1,0,0)"><path stroke-linecap="round" stroke-linejoin="round" fill-opacity="0" stroke="rgb(255,255,255)" stroke-opacity="1" stroke-width="6" d=" M-94.68099975585938,-21.238000869750977 C-94.68099975585938,-21.238000869750977 -92.94100189208984,-21.047000885009766 -90.14800262451172,-20.5"/></g></g></g><g transform="matrix(0.9425439834594727,0.023678718134760857,-0.026049310341477394,0.856768786907196,304.0799560546875,266.57269287109375)" opacity="1" style="display: block;"><g opacity="1" transform="matrix(1,0,0,1,0,0)"><path fill="rgb(244,34,110)" fill-opacity="1" d=" M-12.559000015258789,48.66999816894531 C-12.559000015258789,48.66999816894531 -7.208621978759766,38.332218170166016 -1.1063387393951416,42.122432708740234 C5.231372356414795,46.41695022583008 3.204371929168701,58.31227493286133 -5.953999996185303,62.01900100708008 C-5.953999996185303,62.01900100708008 4.212064266204834,64.09005737304688 3.0835845470428467,73.31401824951172 C1.5291622877120972,84.64684295654297 -8.862000465393066,77.9729995727539 -8.862000465393066,77.9729995727539"/><path stroke-linecap="round" stroke-linejoin="round" fill-opacity="0" stroke="rgb(77,15,10)" stroke-opacity="1" stroke-width="6" d=" M-12.559000015258789,48.66999816894531 C-12.559000015258789,48.66999816894531 -7.208621978759766,38.332218170166016 -1.1063387393951416,42.122432708740234 C5.231372356414795,46.41695022583008 3.204371929168701,58.31227493286133 -5.953999996185303,62.01900100708008 C-5.953999996185303,62.01900100708008 4.212064266204834,64.09005737304688 3.0835845470428467,73.31401824951172 C1.5291622877120972,84.64684295654297 -8.862000465393066,77.9729995727539 -8.862000465393066,77.9729995727539"/></g></g><g transform="matrix(0.9425439834594727,0.023678718134760857,-0.026049310341477394,0.856768786907196,304.0800476074219,266.573974609375)" opacity="0.3" style="display: block;"><g opacity="1" transform="matrix(1,0,0,1,0,0)"><path fill="rgb(77,15,10)" fill-opacity="1" d=" M-87.76399993896484,105.08399963378906 C-93.49099731445312,112.33699798583984 -104.37799835205078,113.28800201416016 -112.08000183105469,107.20600128173828 C-119.78199768066406,101.1240005493164 -121.38300323486328,90.31400299072266 -115.65599822998047,83.06099700927734 C-109.92900085449219,75.80799865722656 -99.04199981689453,74.85700225830078 -91.33999633789062,80.93900299072266 C-83.63800048828125,87.02100372314453 -82.03700256347656,97.83100128173828 -87.76399993896484,105.08399963378906z"/></g></g><g transform="matrix(0.9425439834594727,0.023678718134760857,-0.026049310341477394,0.856768786907196,304.079833984375,266.5732421875)" opacity="1" style="display: block;"><g opacity="1" transform="matrix(1,0,0,1,0,0)"><path fill="rgb(245,245,245)" fill-opacity="1" d=" M-61.80099868774414,8.095000267028809 C-74.93699645996094,9.432999610900879 -95.58000183105469,20.67300033569336 -92.24400329589844,47.5620002746582 C-89.00199890136719,73.69100189208984 -63.30699920654297,81.64700317382812 -47.74100112915039,76.48699951171875 C-28.733999252319336,70.18599700927734 -20.917999267578125,51.965999603271484 -26.881000518798828,34.66999816894531 C-33.19900131225586,16.3439998626709 -48.665000915527344,6.756999969482422 -61.80099868774414,8.095000267028809z"/></g><g opacity="1" transform="matrix(1,0,0,1,0,0)"><g opacity="1" transform="matrix(1,0,0,1,0,0)"><path fill="rgb(77,15,10)" fill-opacity="1" d=" M-61.19200134277344,16.83099937438965 C-71.10099792480469,17.84000015258789 -86.67400360107422,26.31999969482422 -84.15699768066406,46.60300064086914 C-81.71099853515625,66.31300354003906 -62.327999114990234,72.31400299072266 -50.58599853515625,68.4219970703125 C-36.24800109863281,63.66899871826172 -30.35300064086914,49.92499923706055 -34.85100173950195,36.87799835205078 C-39.617000579833984,23.054000854492188 -51.28300094604492,15.821999549865723 -61.19200134277344,16.83099937438965z"/></g><g opacity="1" transform="matrix(1,0,0,1,0,0)"><path stroke-linecap="round" stroke-linejoin="round" fill-opacity="0" stroke="rgb(255,255,255)" stroke-opacity="1" stroke-width="6" d=" M-48.94499969482422,27.82200050354004 C-48.94499969482422,27.82200050354004 -42.21500015258789,21.886999130249023 -42.21500015258789,21.886999130249023"/></g><g opacity="0.2" transform="matrix(1,0,0,1,0,0)"><path stroke-linecap="round" stroke-linejoin="round" fill-opacity="0" stroke="rgb(244,34,110)" stroke-opacity="1" stroke-width="20" d=" M-63.23500061035156,48.9379997253418 C-63.24300003051758,51.56100082397461 -57.875999450683594,56.55699920654297 -52.685001373291016,50.47999954223633"/></g></g><g opacity="1" transform="matrix(1,0,0,1,0,0)"><path stroke-linecap="round" stroke-linejoin="round" fill-opacity="0" stroke="rgb(77,15,10)" stroke-opacity="1" stroke-width="6" d=" M-61.80099868774414,8.095000267028809 C-74.93699645996094,9.432999610900879 -95.58000183105469,20.67300033569336 -92.24400329589844,47.5620002746582 C-89.00199890136719,73.69100189208984 -63.30699920654297,81.64700317382812 -47.74100112915039,76.48699951171875 C-28.733999252319336,70.18599700927734 -20.917999267578125,51.965999603271484 -26.881000518798828,34.66999816894531 C-33.19900131225586,16.3439998626709 -48.665000915527344,6.756999969482422 -61.80099868774414,8.095000267028809z"/></g></g><g transform="matrix(0.9398848414421082,0.06853359192609787,-0.07539481669664383,0.8543515801429749,307.6820373535156,271.7660217285156)" opacity="1" style="display: block;"><g opacity="1" transform="matrix(1,0,0,1,0,0)"><path fill="rgb(244,34,110)" fill-opacity="1" d=" M-23.358999252319336,101.12999725341797 C-23.358999252319336,101.12999725341797 -15.706707000732422,95.24433898925781 -9.552654266357422,87.25989532470703 C-0.8943800926208496,76.02652740478516 9.395455360412598,78.74928283691406 10.847369194030762,93.63709259033203 C12.922197341918945,114.91317749023438 -17.219999313354492,120.572998046875 -17.219999313354492,120.572998046875"/><path stroke-linecap="round" stroke-linejoin="round" fill-opacity="0" stroke="rgb(77,15,10)" stroke-opacity="1" stroke-width="6" d=" M-23.358999252319336,101.12999725341797 C-23.358999252319336,101.12999725341797 -15.706707000732422,95.24433898925781 -9.552654266357422,87.25989532470703 C-0.8943800926208496,76.02652740478516 9.395455360412598,78.74928283691406 10.847369194030762,93.63709259033203 C12.922197341918945,114.91317749023438 -17.219999313354492,120.572998046875 -17.219999313354492,120.572998046875"/></g></g><g transform="matrix(0.8999999761581421,0,0,0.8999999761581421,290,256)" opacity="1" style="display: block;"><g opacity="1" transform="matrix(1,0,0,1,0,0)"><path fill="rgb(194,28,80)" fill-opacity="1" d=" M-118.1500015258789,180.83299255371094 C-118.1500015258789,180.83299255371094 -113.15799713134766,186.85899353027344 -115.41200256347656,196.92300415039062 C-117.99700164794922,208.46499633789062 -104.36499786376953,214.5189971923828 -94.48400115966797,203.0989990234375 C-84.60299682617188,191.6790008544922 -90.28900146484375,174.0989990234375 -90.28900146484375,174.0989990234375"/><path stroke-linecap="round" stroke-linejoin="round" fill-opacity="0" stroke="rgb(77,15,10)" stroke-opacity="1" stroke-width="6" d=" M-118.1500015258789,180.83299255371094 C-118.1500015258789,180.83299255371094 -113.15799713134766,186.85899353027344 -115.41200256347656,196.92300415039062 C-117.99700164794922,208.46499633789062 -104.36499786376953,214.5189971923828 -94.48400115966797,203.0989990234375 C-84.60299682617188,191.6790008544922 -90.28900146484375,174.0989990234375 -90.28900146484375,174.0989990234375"/></g></g><g transform="matrix(0.9398848414421082,0.06853359192609787,-0.07539481669664383,0.8543515801429749,307.6820373535156,271.7660217285156)" opacity="1" style="display: block;"><g opacity="1" transform="matrix(1,0,0,1,0,0)"><g opacity="1" transform="matrix(1,0,0,1,0,0)"><path fill="rgb(29,214,214)" fill-opacity="1" d=" M-151.72999572753906,-7.51800012588501 C-141.78399658203125,-5.4039998054504395 -128.51400756835938,-9.994000434875488 -122.43199920654297,-12.281999588012695 C-133.62100219726562,-17.90999984741211 -174.62416076660156,-39.28184127807617 -192.80767822265625,-84.15167999267578 C-216.71434020996094,-143.15553283691406 -175.43405151367188,-145.04129028320312 -181.31942749023438,-158.29379272460938 C-187.20481872558594,-171.54629516601562 -211.1342315673828,-154.71047973632812 -211.78916931152344,-123.24701690673828 C-212.41270446777344,-93.18079376220703 -197.51756286621094,-48.57135009765625 -151.72999572753906,-7.51800012588501z"/></g><g opacity="1" transform="matrix(1,0,0,1,0,0)"><path fill="rgb(67,255,250)" fill-opacity="1" d=" M-124.4209976196289,-12.126999855041504 C-125.84300231933594,-11.592000007629395 -131.5540008544922,-9.621999740600586 -133.61700439453125,-8.946000099182129 C-147.86700439453125,-16.547000885009766 -180.97007751464844,-40.33188247680664 -198.2615509033203,-83.49716186523438 C-222.7091827392578,-144.53045654296875 -181.14820861816406,-146.2153778076172 -187.16026306152344,-159.92755126953125 C-187.64805603027344,-161.0536651611328 -188.26220703125,-161.9632110595703 -188.97344970703125,-162.67660522460938 C-186.55409240722656,-162.3966522216797 -184.54107666015625,-160.9362030029297 -183.305419921875,-158.17185974121094 C-177.4190216064453,-144.9202880859375 -218.70062255859375,-143.0326690673828 -194.79666137695312,-84.02881622314453 C-176.61395263671875,-39.1639404296875 -135.61399841308594,-17.7549991607666 -124.4209976196289,-12.126999855041504z"/></g><g opacity="1" transform="matrix(1,0,0,1,0,0)"><path stroke-linecap="round" stroke-linejoin="round" fill-opacity="0" stroke="rgb(0,114,111)" stroke-opacity="1" stroke-width="6" d=" M-154.8159942626953,-7.254000186920166 C-144.8699951171875,-5.139999866485596 -128.7310028076172,-10.652000427246094 -122.64900207519531,-12.9399995803833 C-133.83799743652344,-18.56800079345703 -174.62416076660156,-39.28184127807617 -192.80767822265625,-84.15167999267578 C-216.71434020996094,-143.15553283691406 -175.43405151367188,-145.04129028320312 -181.31942749023438,-158.29379272460938 C-187.20481872558594,-171.54629516601562 -211.1342315673828,-154.71047973632812 -211.78916931152344,-123.24701690673828 C-212.41270446777344,-93.18079376220703 -200.56663513183594,-48.29722595214844 -154.8159942626953,-7.254000186920166z"/></g></g><g opacity="1" transform="matrix(1,0,0,1,0,0)"><path stroke-linecap="round" stroke-linejoin="round" fill-opacity="0" stroke="rgb(77,15,10)" stroke-opacity="1" stroke-width="6" d=" M-114.66000366210938,-19.388999938964844 C-117.28900146484375,-16.46500015258789 -120.38200378417969,-14.154999732971191 -123.71399688720703,-12.335000038146973 C-135.72900390625,-5.765999794006348 -150.96499633789062,-5.618000030517578 -159.69500732421875,-6.2210001945495605 C-164,-6.525000095367432 -166.72000122070312,-7.010000228881836 -166.72000122070312,-7.010000228881836"/></g></g><g transform="matrix(0.9425439834594727,0.023678718134760857,-0.026049310341477394,0.856768786907196,303.154296875,261.5502014160156)" opacity="1" style="display: block;"><g opacity="1" transform="matrix(1,0,0,1,0,0)"><path fill="rgb(77,15,10)" fill-opacity="1" d=" M-66.58399963378906,-13.942999839782715 C-58.612998962402344,-12.560999870300293 -52.69499969482422,-8.307000160217285 -53.3650016784668,-4.442999839782715 C-54.03499984741211,-0.5789999961853027 -61.040000915527344,1.4329999685287476 -69.01100158691406,0.050999999046325684 C-76.98200225830078,-1.3309999704360962 -82.9010009765625,-5.585000038146973 -82.23100280761719,-9.449000358581543 C-81.56099700927734,-13.312999725341797 -74.55500030517578,-15.324999809265137 -66.58399963378906,-13.942999839782715z"/></g></g><g transform="matrix(0.8428207635879517,-0.02042989246547222,0.02042989246547222,0.8428207635879517,284.11724853515625,293.6625671386719)" opacity="1" style="display: block;"><g opacity="1" transform="matrix(1,0,0,1,0,0)"><path fill="rgb(255,87,148)" fill-opacity="1" d=" M6.468999862670898,-54.87300109863281 C6.468999862670898,-54.87300109863281 -2.078000068664551,-71.33100128173828 -14.003999710083008,-63.10200119018555 C-25.93000030517578,-54.87300109863281 6.468999862670898,-30.559999465942383 6.468999862670898,-30.559999465942383 C6.468999862670898,-30.559999465942383 35.763999938964844,-45.61600112915039 30.374000549316406,-57.95899963378906 C24.983999252319336,-70.302001953125 10.069000244140625,-59.50199890136719 6.468999862670898,-54.87300109863281z"/></g></g><g transform="matrix(0.3025856912136078,0.027043743059039116,-0.027043743059039116,0.3025856912136078,312.7147521972656,327.4771423339844)" opacity="1" style="display: block;"><g opacity="1" transform="matrix(1,0,0,1,0,0)"><path fill="rgb(255,87,148)" fill-opacity="1" d=" M6.468999862670898,-54.87300109863281 C6.468999862670898,-54.87300109863281 -2.078000068664551,-71.33100128173828 -14.003999710083008,-63.10200119018555 C-25.93000030517578,-54.87300109863281 6.468999862670898,-30.559999465942383 6.468999862670898,-30.559999465942383 C6.468999862670898,-30.559999465942383 35.763999938964844,-45.61600112915039 30.374000549316406,-57.95899963378906 C24.983999252319336,-70.302001953125 10.069000244140625,-59.50199890136719 6.468999862670898,-54.87300109863281z"/></g></g><g transform="matrix(0.00008070327021414414,0.000055731579777784646,-0.000055731579777784646,0.00008070327021414414,345.9075012207031,118.41060638427734)" opacity="1" style="display: none;"><g opacity="1" transform="matrix(1,0,0,1,0,0)"><path fill="rgb(255,87,148)" fill-opacity="1" d=" M6.468999862670898,-54.87300109863281 C6.468999862670898,-54.87300109863281 -2.078000068664551,-71.33100128173828 -14.003999710083008,-63.10200119018555 C-25.93000030517578,-54.87300109863281 6.468999862670898,-30.559999465942383 6.468999862670898,-30.559999465942383 C6.468999862670898,-30.559999465942383 35.763999938964844,-45.61600112915039 30.374000549316406,-57.95899963378906 C24.983999252319336,-70.302001953125 10.069000244140625,-59.50199890136719 6.468999862670898,-54.87300109863281z"/></g></g><g transform="matrix(0.695622444152832,-0.5710598230361938,0.5710598230361938,0.695622444152832,303.92132568359375,253.90740966796875)" opacity="1" style="display: none;"><g opacity="1" transform="matrix(1,0,0,1,0,0)"><path fill="rgb(255,87,148)" fill-opacity="1" d=" M6.468999862670898,-54.87300109863281 C6.468999862670898,-54.87300109863281 -2.078000068664551,-71.33100128173828 -14.003999710083008,-63.10200119018555 C-25.93000030517578,-54.87300109863281 6.468999862670898,-30.559999465942383 6.468999862670898,-30.559999465942383 C6.468999862670898,-30.559999465942383 35.763999938964844,-45.61600112915039 30.374000549316406,-57.95899963378906 C24.983999252319336,-70.302001953125 10.069000244140625,-59.50199890136719 6.468999862670898,-54.87300109863281z"/></g></g><g transform="matrix(0.0005888545420020819,0.0004066425608471036,-0.0004066425608471036,0.0005888545420020819,274.0412902832031,113.19180297851562)" opacity="1" style="display: none;"><g opacity="1" transform="matrix(1,0,0,1,0,0)"><path fill="rgb(255,87,148)" fill-opacity="1" d=" M6.468999862670898,-54.87300109863281 C6.468999862670898,-54.87300109863281 -2.078000068664551,-71.33100128173828 -14.003999710083008,-63.10200119018555 C-25.93000030517578,-54.87300109863281 6.468999862670898,-30.559999465942383 6.468999862670898,-30.559999465942383 C6.468999862670898,-30.559999465942383 35.763999938964844,-45.61600112915039 30.374000549316406,-57.95899963378906 C24.983999252319336,-70.302001953125 10.069000244140625,-59.50199890136719 6.468999862670898,-54.87300109863281z"/></g></g><g transform="matrix(0.86766517162323,0.48420652747154236,-0.48420652747154236,0.86766517162323,275.88006591796875,321.8170166015625)" opacity="1" style="display: none;"><g opacity="1" transform="matrix(1,0,0,1,0,0)"><path fill="rgb(255,87,148)" fill-opacity="1" d=" M6.468999862670898,-54.87300109863281 C6.468999862670898,-54.87300109863281 -2.078000068664551,-71.33100128173828 -14.003999710083008,-63.10200119018555 C-25.93000030517578,-54.87300109863281 6.468999862670898,-30.559999465942383 6.468999862670898,-30.559999465942383 C6.468999862670898,-30.559999465942383 35.763999938964844,-45.61600112915039 30.374000549316406,-57.95899963378906 C24.983999252319336,-70.302001953125 10.069000244140625,-59.50199890136719 6.468999862670898,-54.87300109863281z"/></g></g><g transform="matrix(0.0012243813835084438,0.0008455009083263576,-0.0008455009083263576,0.0012243813835084438,344.9903259277344,117.86042785644531)" opacity="1" style="display: none;"><g opacity="1" transform="matrix(1,0,0,1,0,0)"><path fill="rgb(255,87,148)" fill-opacity="1" d=" M6.468999862670898,-54.87300109863281 C6.468999862670898,-54.87300109863281 -2.078000068664551,-71.33100128173828 -14.003999710083008,-63.10200119018555 C-25.93000030517578,-54.87300109863281 6.468999862670898,-30.559999465942383 6.468999862670898,-30.559999465942383 C6.468999862670898,-30.559999465942383 35.763999938964844,-45.61600112915039 30.374000549316406,-57.95899963378906 C24.983999252319336,-70.302001953125 10.069000244140625,-59.50199890136719 6.468999862670898,-54.87300109863281z"/></g></g></g></svg>